<svg xmlns="http://www.w3.org/2000/svg" width="29" height="18" viewBox="0 0 29 18" fill="none">
<g opacity="0.85">
<path d="M0.705938 10.3496C0.96099 10.3496 1.1768 10.2621 1.35338 10.087C1.53976 9.90216 1.63786 9.68328 1.64767 9.43035V1.30264C1.61824 0.962166 1.45638 0.70924 1.16209 0.543864C1.01494 0.466041 0.862893 0.427128 0.705938 0.427128H0.514648V0.28121H4.64944C5.08106 0.28121 5.45874 0.247162 5.78246 0.179067C6.10618 0.110971 6.31708 0.0574666 6.41518 0.0185547V2.57214H6.25332V2.39704C6.26313 1.95928 6.13561 1.60908 5.87074 1.34642C5.61569 1.07404 5.26745 0.928119 4.82601 0.908663H3.85485V5.15491H6.19446C6.55742 5.14519 6.85662 5.02359 7.09205 4.79012C7.32748 4.54692 7.4452 4.25022 7.4452 3.90001V3.76868H7.57763V7.13942H7.4452V7.02268C7.4452 6.66275 7.32748 6.36604 7.09205 6.13257C6.85662 5.8991 6.56233 5.7775 6.20918 5.76778H3.85485V9.86811H6.72419C7.44029 9.86811 8.03869 9.66382 8.51936 9.25525C9.00985 8.84667 9.37281 8.26786 9.60824 7.51881H9.75538L9.0638 10.4956H0.514648V10.3496H0.705938Z" fill="white"/>
<path d="M19.5316 13.2189H19.7376V13.3648H14.7199V13.2189H14.9112C15.1172 13.2189 15.284 13.1216 15.4115 12.9271C15.4704 12.82 15.4998 12.7179 15.4998 12.6206C15.4998 12.5233 15.4704 12.4261 15.4115 12.3288L13.3662 9.16234L10.5115 13.1897C9.354 14.8045 8.08365 15.612 6.70048 15.612C6.49448 15.612 6.28356 15.5925 6.06775 15.5536V15.4077C6.931 15.3299 7.67164 14.9651 8.28965 14.3133C8.58394 14.002 8.93709 13.5691 9.3491 13.0146L12.7923 8.28683L10.0995 4.15731C9.87392 3.81683 9.57472 3.56877 9.20195 3.41312C9.00576 3.3353 8.80957 3.29639 8.61337 3.29639H8.40737V3.15047H13.4103V3.29639H13.219C13.013 3.29639 12.8463 3.39367 12.7187 3.58823C12.6599 3.69524 12.6304 3.80224 12.6304 3.90925C12.6304 4.00653 12.655 4.09895 12.704 4.1865L14.5139 6.94437L17.0742 3.20884C18.1925 1.58427 19.4482 0.771984 20.8412 0.771984C20.9589 0.771984 21.0815 0.776848 21.209 0.786576V0.932495C20.4046 0.951951 19.6002 1.50158 18.7958 2.58138C18.6781 2.7273 18.5604 2.88295 18.4427 3.04833C18.3348 3.2137 18.2661 3.31098 18.2367 3.34017L15.1025 7.84907L18.0454 12.3726C18.2122 12.6158 18.428 12.82 18.6928 12.9854C18.9675 13.1411 19.2471 13.2189 19.5316 13.2189Z" fill="white"/>
<path d="M23.3196 11.9548C23.4864 12.3439 23.8297 12.5384 24.3496 12.5384C24.9382 12.5384 25.4091 12.2466 25.7622 11.6629C26.0075 11.2641 26.1301 10.7582 26.1301 10.1454C26.1301 9.24065 25.8898 8.57915 25.4091 8.16085C25.0461 7.84956 24.5851 7.69391 24.0259 7.69391C23.8984 7.69391 23.766 7.70364 23.6286 7.72309L22.6428 7.86901V16.4345C22.6428 16.6971 22.736 16.916 22.9223 17.0911C23.1087 17.2662 23.3294 17.3538 23.5845 17.3538H23.7758V17.4997H19.3026V17.3538H19.4939C19.7489 17.3538 19.9647 17.2662 20.1413 17.0911C20.3277 16.916 20.4258 16.6971 20.4356 16.4345V8.65698C20.4258 8.40405 20.3473 8.20463 20.2002 8.05871C20.0628 7.91279 19.8568 7.83983 19.5822 7.83983C19.5135 7.83983 19.4252 7.84469 19.3173 7.85442L19.2879 7.72309C20.1217 7.655 20.9948 7.54313 21.9071 7.38748C22.8292 7.2221 23.4324 7.11996 23.7169 7.08105C24.0112 7.04214 24.3055 7.02268 24.5998 7.02268C24.9039 7.02268 25.2669 7.05673 25.6887 7.12482C26.1105 7.18319 26.5421 7.32425 26.9835 7.54799C27.425 7.762 27.783 8.08303 28.0577 8.51106C28.3422 8.978 28.4844 9.50817 28.4844 10.1016C28.4844 10.6853 28.3765 11.2008 28.1607 11.6483C27.7487 12.5044 27.0424 13.0491 26.0418 13.2826C25.7966 13.341 25.5611 13.3702 25.3355 13.3702C25.1197 13.3702 24.9137 13.3507 24.7175 13.3118C24.3153 13.2534 23.9769 13.1172 23.7022 12.9032C23.4275 12.6892 23.2559 12.3925 23.1872 12.0131L23.3196 11.9548Z" fill="white"/>
</g>
</svg>